<?xml version="1.0" ?><svg enable-background="new 0 0 200 200" version="1.1" viewBox="0 0 200 200" xml:space="preserve" xmlns="http://www.w3.org/2000/svg" xmlns:xlink="http://www.w3.org/1999/xlink"><g id="Layer_4"><path d="M22.395,52.116l7.256-3.751l6.977-5.011l10.646,1.297l11.512-5.372l13.006,5.372l2.512-3.714l5.512-6.123   v-6.698l8.72-1.953l2.233-5.302h15.629l10.324-4.744l11.509,5.581l17.515-1.395l5.581,6.14c0,0,5.537,1.116,6.815,1.953   c1.278,0.837,2.698,8.093,2.698,8.093s1.371,6.183,2.208,6.859c0.837,0.676-1.626,9.406-2.208,12.018s-9.792,5.123-9.792,5.123   s-5.581,5.314-6.14,6.006c-0.558,0.692-1.116,2.377-1.116,2.377l9.746,3.911c0,0,11.463-0.822,12.579,0c1.116,0.822,5.86,7,5.86,7   l8.489,1.915l2.699,10.291l3.603,4.135l-5.302,12.031l-4.186,4.241l-12.837,7.267l-15.508,0.787l-11.537,1.993l-14.51-2.78   l-16.49-7.546l-11.164-6.14l2.623-13.988L100,79.782L87.977,83.93l-5.023,8.058c0,0-14.512-0.314-15.907,0   c-1.395,0.314-17.302,0-17.302,0l-16.186-2.198l-8.651-6.14l-11.163-3.869V67.671L22.395,52.116z" fill="#F7D997"/><path d="M183.16,109.6c0,0-7.83,55.54-8.67,56.66c-0.25,0.33-0.76,1.14-1.39,2.14c-1.49,2.36-3.6,5.75-4.19,5.95   c-0.84,0.28-9.18,6.56-9.18,6.56l-6.19-2.65l-10.31,5.58l-15-2.93c0,0-9.56-3.49-10.67-3.77c-1.12-0.28-6.21-5.3-6.21-5.3   l-7.75-13.4l-5.74-26.79l-1.16,1.36v0.01l-3.14,3.65l-0.58,1.25l-3.33,7.13l-12.54,5.86l-18.42,2.79l-18.42-1.16l-15.92-5.28   l2.23-6.4l-5.02-6.7l-6.13-50.61l-0.29-2.41l9.77,4.59l8.65,4.06l5.3,0.86l13.67,2.21l14.52-0.87l16.46-1.92l12-4.74l4.49-5.55   l2.15-12.09c0,0,16.25,1.73,18.18,1.59c1.93-0.14,7.9-2.79,7.9-2.79h15.28l5.57-4.12l13.13-2.44l-2.48,11.87l-4.22,0.98l-14.2-3.58   l-13.08,4.96c0,0-9.83-0.56-10.67-1.38c-0.84-0.82-8.69,5.01-8.69,5.01l-6.72,5.58l-4.62,10.35c0,0,0.21,11.7,0.33,12.54   c0.11,0.83,8.54,5.86,8.54,5.86l13.93,6.37c0,0,15.65,3.67,17.07,3.95c1.42,0.28,8.9-0.84,8.9-0.84l18.42-3.62L183.16,109.6z" fill="#FF0000"/></g><g id="Layer_2"><ellipse cx="61.465" cy="60.423" fill="#EDC26E" rx="36.991" ry="19.135"/><ellipse cx="120.327" cy="36.23" fill="#EDC26E" rx="36.991" ry="19.135"/><ellipse cx="144.553" cy="90.934" fill="#EDC26E" rx="36.991" ry="19.135"/><path d="M92.98,137.92l-3.33,7.13l-12.54,5.86l-18.42,2.79l-18.42-1.16l-15.92-5.28l2.23-6.4l-5.02-6.7l-6.13-50.61   l9.48,2.18l4.33,0.99l9.62,3.91c0,0,0,0.01,0,0.02c-0.03,1.04-1.06,40.98,13.16,47.07C64.84,143.21,88.02,138.93,92.98,137.92z" opacity="0.2"/><path d="M173.1,168.4c-1.49,2.36-3.6,5.75-4.19,5.95c-0.84,0.28-9.18,6.56-9.18,6.56l-6.19-2.65l-10.31,5.58   l-15-2.93c0,0-9.56-3.49-10.67-3.77c-1.12-0.28-6.21-5.3-6.21-5.3l-7.75-13.4l-5.74-26.79l-1.16,1.36l0.58-18.94l14.88,2.61   l9.62,3.9c0,0-1.25,40.92,13.16,47.09C146.09,172.44,165.08,169.83,173.1,168.4z" opacity="0.2"/><ellipse cx="58.244" cy="69.486" fill="#FF0000" rx="15.574" ry="5.936"/><ellipse cx="141.308" cy="96.124" fill="#FF0000" rx="15.574" ry="5.936"/><ellipse cx="118.979" cy="43.347" fill="#FF0000" rx="15.574" ry="5.936"/></g><g id="Layer_3"/><g id="Layer_1"><g><path d="M58.693,58.361c-10.673,0-18.42,4.504-18.42,10.711c0,6.206,7.747,10.71,18.42,10.71    s18.42-4.504,18.42-10.71C77.113,62.865,69.366,58.361,58.693,58.361z M58.693,72.782c-7.37,0-11.42-2.787-11.42-3.71    s4.05-3.711,11.42-3.711s11.42,2.787,11.42,3.711S66.063,72.782,58.693,72.782z" fill="#280101"/><path d="M118.979,55.365c10.672,0,18.417-4.506,18.417-10.714s-7.745-10.714-18.417-10.714    s-18.417,4.506-18.417,10.714S108.308,55.365,118.979,55.365z M118.979,40.937c7.368,0,11.417,2.79,11.417,3.714    s-4.049,3.714-11.417,3.714s-11.417-2.79-11.417-3.714S111.611,40.937,118.979,40.937z" fill="#280101"/><path d="M186.277,89.255l-1.468-0.831c-0.244-0.138-0.473-0.675-0.273-1.206c0.342-0.917,0.516-1.885,0.516-2.876    c0-3.971-2.829-7.307-6.576-7.758l-4.641-0.565c-0.051-0.006-0.226-0.114-0.331-0.395l-0.564-1.516    c-1.228-3.294-4.414-5.305-7.769-4.903l-0.94,0.114l3.4-24.17c0-0.003,0.001-0.005,0.002-0.008l0.007-0.05    c0.087-0.401,0.144-0.802,0.171-1.205l0.007-0.046c0.022-0.163,0.034-0.327,0.034-0.491c0-2.88-1.491-5.518-3.899-6.887    l-1.468-0.83c-0.244-0.138-0.473-0.675-0.273-1.206c0.343-0.919,0.517-1.887,0.517-2.876c0-3.971-2.829-7.306-6.576-7.759    l-4.643-0.565c-0.051-0.006-0.224-0.113-0.329-0.394l-0.564-1.518c-1.229-3.292-4.432-5.306-7.771-4.9l-11.681,1.413    c-0.034,0.004-0.074-0.016-0.085-0.021l-8.556-4.859c-2.212-1.268-4.86-1.27-7.08-0.006l-8.539,4.854    c-0.029,0.017-0.079,0.034-0.104,0.031l-11.685-1.412c-3.336-0.411-6.535,1.606-7.767,4.903l-0.558,1.5    c-0.1,0.263-0.263,0.399-0.362,0.411l-4.611,0.563c-2.232,0.269-4.204,1.563-5.411,3.548c-1.282,2.11-1.525,4.761-0.645,7.109    c0.045,0.118,0.066,0.248,0.066,0.397c0,0.384-0.175,0.683-0.365,0.791l-1.457,0.83c-1.951,1.11-3.285,3.064-3.723,5.301    l-7.866-4.472c-2.22-1.265-4.869-1.263-7.081,0.006l-8.555,4.858c-0.011,0.005-0.049,0.019-0.087,0.021l-11.681-1.413    c-3.354-0.402-6.541,1.609-7.769,4.903l-0.564,1.516c-0.105,0.28-0.28,0.388-0.331,0.395l-4.641,0.565    c-3.747,0.452-6.576,3.788-6.576,7.758c0,0.991,0.174,1.958,0.516,2.876c0.199,0.531-0.029,1.068-0.273,1.206l-1.468,0.831    c-2.024,1.151-3.388,3.203-3.774,5.538c-0.193,0.435-0.308,0.911-0.308,1.415c0,0.599,0.086,1.199,0.219,1.795l9.102,64.724    c0.095,2.437,1.401,4.644,3.447,5.802l1.085,0.62c0.009,0.034,0.014,0.079,0.004,0.104c-0.313,0.818-0.471,1.679-0.471,2.562    c0,3.526,2.521,6.485,5.86,6.882l3.405,0.41l0.409,1.094c1.09,2.925,3.93,4.723,6.933,4.357l9.066-1.1l6.65,3.772    c0.988,0.561,2.073,0.841,3.157,0.841c1.085,0,2.17-0.28,3.158-0.841l6.651-3.772l9.069,1.101    c2.985,0.357,5.838-1.433,6.928-4.354l0.411-1.098l3.396-0.411c1.996-0.241,3.758-1.394,4.833-3.165    c1.131-1.864,1.345-4.204,0.572-6.26l-3.276,1.232l3.278-1.386c-0.007,0.011-0.039,0.051-0.08,0.075l1.146-0.655    c1.6-0.905,2.737-2.442,3.213-4.224l3.766,26.786c0.095,2.438,1.402,4.645,3.448,5.802l1.085,0.62    c0.009,0.034,0.015,0.077,0.007,0.098c-0.314,0.817-0.474,1.681-0.474,2.568c0,3.527,2.522,6.486,5.86,6.881l3.405,0.411    l0.409,1.094c1.091,2.926,3.943,4.718,6.933,4.357l9.064-1.101l6.653,3.774c0.988,0.56,2.072,0.839,3.156,0.839    s2.169-0.28,3.158-0.84l6.651-3.773l9.069,1.101c2.983,0.358,5.839-1.433,6.928-4.354l0.411-1.098l3.396-0.411    c1.995-0.241,3.756-1.394,4.831-3.163c1.132-1.864,1.347-4.204,0.574-6.26l-3.276,1.23l3.277-1.386    c-0.007,0.011-0.039,0.051-0.079,0.074l1.147-0.656c2.059-1.165,3.365-3.372,3.46-5.809l9.101-64.718    c0-0.003,0.001-0.005,0.002-0.008l0.001-0.006c0.096-0.429,0.156-0.859,0.183-1.291l0.001-0.005    c0.022-0.163,0.034-0.327,0.034-0.491C190.176,93.262,188.685,90.625,186.277,89.255z M82.828,34.846    c0-1.003-0.177-1.975-0.519-2.873c-0.188-0.499,0.013-0.891,0.079-0.999c0.031-0.051,0.142-0.219,0.271-0.234l4.596-0.561    c2.734-0.317,5.066-2.191,6.09-4.906l0.563-1.511c0.111-0.3,0.293-0.402,0.363-0.399l11.688,1.413    c1.508,0.181,3.019-0.12,4.385-0.884l8.56-4.866c0.069-0.04,0.098-0.029,0.151,0.001l8.586,4.876    c1.346,0.754,2.854,1.054,4.364,0.873l11.682-1.413c0.08-0.018,0.258,0.1,0.369,0.396l0.569,1.528    c1.018,2.699,3.344,4.573,6.055,4.889l4.63,0.563c0.168,0.021,0.418,0.369,0.418,0.81c0,0.153-0.024,0.293-0.073,0.424    c-1.381,3.684,0.072,7.875,3.382,9.75l1.462,0.827c0.208,0.118,0.308,0.379,0.34,0.62l-0.093,0.652    c-0.015,0.036-0.029,0.074-0.048,0.105c-0.013,0.021-0.024,0.043-0.038,0.061c-0.046,0.06-0.096,0.112-0.155,0.145l-1.483,0.84    c-2.396,1.371-3.885,4.007-3.885,6.878c0,1,0.176,1.971,0.518,2.872c0.188,0.499-0.013,0.892-0.079,1    c-0.03,0.051-0.142,0.218-0.27,0.234l-4.609,0.561c-2.723,0.318-5.049,2.186-6.079,4.903l-0.559,1.508    c-0.104,0.28-0.302,0.406-0.374,0.404l-11.682-1.413c-1.505-0.182-3.017,0.121-4.381,0.884l-8.561,4.862    c-0.054,0.031-0.1,0.038-0.159,0.005l-8.578-4.877c-0.308-0.173-0.626-0.315-0.949-0.44c-0.107-0.041-0.215-0.072-0.323-0.108    c-0.222-0.074-0.444-0.139-0.671-0.191c-0.126-0.029-0.253-0.053-0.381-0.075c-0.22-0.037-0.441-0.062-0.663-0.079    c-0.124-0.009-0.247-0.021-0.372-0.024c-0.05-0.001-0.099-0.01-0.149-0.01c-0.283,0-0.568,0.017-0.853,0.051l-0.79,0.094    c-0.451-0.435-0.957-0.815-1.511-1.133l-1.259-0.713c-0.066-0.136-0.125-0.273-0.211-0.403c-0.104-0.158-0.161-0.359-0.161-0.567    c0-0.111,0.017-0.226,0.049-0.333c0.096-0.324,0.145-0.659,0.145-0.997c0-0.017-0.003-0.035-0.004-0.052    c0.139-0.603,0.217-1.221,0.217-1.849c0-1.444-0.378-2.801-1.034-3.969c-0.135-0.492-0.376-0.953-0.71-1.344    c-1.193-1.396-2.841-2.288-4.64-2.511l-4.624-0.563c-0.081-0.01-0.253-0.123-0.362-0.413l-0.556-1.496    c-1.232-3.3-4.43-5.315-7.769-4.905l-2.929,0.354C81.694,39.667,82.828,37.353,82.828,34.846z M158.141,62.369l-1.101,7.818    l-3.55,0.432c-0.038-0.002-0.077-0.016-0.087-0.021l-4.47-2.539c0.123-0.128,0.236-0.267,0.351-0.405    c0.031-0.037,0.064-0.071,0.094-0.108c0.23-0.286,0.438-0.593,0.63-0.916c0.04-0.068,0.077-0.136,0.115-0.205    c0.185-0.336,0.356-0.682,0.495-1.051l0.554-1.496c0.111-0.292,0.285-0.4,0.354-0.408l4.622-0.563    c0.318-0.038,0.628-0.103,0.934-0.182c0.098-0.025,0.193-0.058,0.289-0.088c0.208-0.063,0.413-0.133,0.613-0.214    C158.035,62.403,158.09,62.391,158.141,62.369z M132.058,68.98l-2.829,1.609c-0.044,0.024-0.083,0.037-0.104,0.031l-0.895-0.108    l2.831-1.608c0.029-0.017,0.069-0.036,0.104-0.032L132.058,68.98z M111.348,71.43c-0.004,0.004-0.007,0.009-0.011,0.013    c-0.158,0.166-0.308,0.342-0.452,0.523c-0.048,0.061-0.093,0.124-0.139,0.186c-0.099,0.132-0.194,0.267-0.285,0.406    c-0.047,0.072-0.092,0.145-0.137,0.218c-0.088,0.145-0.171,0.295-0.25,0.447c-0.035,0.067-0.072,0.133-0.105,0.202    c-0.108,0.223-0.209,0.451-0.297,0.687l-0.556,1.496c-0.109,0.29-0.281,0.403-0.362,0.413l-2.357,0.287l0.949-6.758    c0.026-0.118,0.054-0.236,0.075-0.354L111.348,71.43z M97.606,88.532l-1.274,0.727c-2.402,1.366-3.895,4.003-3.895,6.884    c0,0.356,0.028,0.714,0.075,1.07c0.015,0.114,0.043,0.227,0.063,0.34c0.034,0.195,0.061,0.39,0.109,0.584l1.787,12.696    l-1.594,11.358c-0.007,0.045-0.012,0.093-0.017,0.141l-1.58,11.186c-0.022,0.162-0.034,0.325-0.034,0.488    c0,0.02-0.002,0.037-0.004,0.052l-1.063,0.607c-2.149,1.207-3.485,3.543-3.485,6.099c0,0.847,0.153,1.691,0.463,2.534    c0.007,0.017,0.011,0.033,0.013,0.047l-1.818,0.22l5.008-36.131c0.266-1.915-1.071-3.682-2.986-3.947    c-1.913-0.264-3.682,1.071-3.947,2.986l-5.874,42.379c-0.01,0.073-0.003,0.143-0.008,0.216l-4.479-0.544l2.979-35.631    c0.16-1.926-1.271-3.618-3.196-3.779c-1.936-0.16-3.618,1.27-3.78,3.196l-3.022,36.139c-0.288,0.113-0.571,0.241-0.845,0.396    l-6.509,3.692l-5.708-3.237l-3.093-36.99c-0.162-1.926-1.834-3.354-3.78-3.196c-1.926,0.161-3.356,1.853-3.196,3.779l2.963,35.442    l-6.039,0.733c-0.005-0.072,0.002-0.143-0.008-0.216l-5.874-42.379c-0.266-1.914-2.025-3.251-3.947-2.986    c-1.915,0.265-3.252,2.033-2.986,3.947l5.008,36.132l-1.8-0.217c0-0.035,0-0.065,0-0.065c1.209-3.258-0.09-6.961-3.004-8.605    l-1.085-0.62c-0.002-0.015-0.004-0.032-0.004-0.052c0-0.163-0.012-0.326-0.034-0.487l-6.571-46.729    c0.623,0.271,1.29,0.455,1.989,0.539l4.637,0.566c0.063,0.007,0.235,0.12,0.334,0.378l0.568,1.537    c1.228,3.275,4.417,5.29,7.76,4.896l11.688-1.413c0.034-0.001,0.081,0.018,0.086,0.021l8.576,4.876    c2.213,1.241,4.845,1.238,7.05-0.009l8.55-4.855c0.03-0.017,0.071-0.041,0.104-0.032l11.694,1.415    c3.337,0.389,6.526-1.625,7.76-4.914l0.551-1.492c0.112-0.294,0.287-0.402,0.368-0.412l4.608-0.561    c0.696-0.084,1.368-0.268,1.998-0.541L97.606,88.532z M94.848,76.273c0,1,0.176,1.971,0.518,2.872    c0.188,0.499-0.013,0.892-0.079,1c-0.03,0.051-0.141,0.218-0.27,0.233l-1.376,0.168c-0.729-1.047-1.995-1.665-3.347-1.479    c-1.595,0.223-2.774,1.492-2.973,3.015c-1.322,0.868-2.385,2.162-2.994,3.763l-0.557,1.506c-0.104,0.277-0.25,0.425-0.374,0.404    l-11.682-1.413c-1.503-0.18-3.017,0.12-4.381,0.884l-8.385,4.762c-0.521-0.359-1.085-0.645-1.683-0.833l-7.02-3.99    c-1.37-0.768-2.881-1.068-4.39-0.889l-11.681,1.413c-0.085-0.005-0.269-0.124-0.374-0.403l-0.559-1.51    c-1.031-2.716-3.356-4.584-6.08-4.902l-4.608-0.561c-0.129-0.016-0.239-0.184-0.271-0.234c-0.066-0.108-0.267-0.5-0.079-0.999    c0.343-0.904,0.519-1.874,0.519-2.873c0-2.871-1.488-5.506-3.885-6.878l-1.483-0.839c-0.099-0.057-0.182-0.153-0.24-0.282    l-0.096-0.673c0.031-0.243,0.133-0.509,0.343-0.629l1.462-0.828c3.309-1.874,4.762-6.065,3.381-9.75    c-0.049-0.13-0.072-0.267-0.072-0.424c0-0.44,0.25-0.789,0.418-0.81l4.629-0.563c2.712-0.317,5.038-2.191,6.056-4.889l0.569-1.529    c0.102-0.272,0.301-0.391,0.368-0.396l11.68,1.413c1.512,0.181,3.021-0.12,4.367-0.873l8.586-4.876    c0.053-0.029,0.078-0.043,0.15-0.001l8.561,4.866c1.363,0.764,2.872,1.065,4.382,0.885l1.91-0.231    c0.033,0.001,0.063,0.009,0.096,0.009c0.129,0,0.26-0.007,0.391-0.022l0.167-0.019c0.004,0,0.008-0.002,0.012-0.003    c0.008-0.001,0.015,0,0.023-0.001l8.9-1.081c0.082-0.002,0.269,0.127,0.368,0.395l0.569,1.532c1.02,2.698,3.346,4.571,6.056,4.888    l4.417,0.537l0.297,2.109c-0.883,3.46,0.585,7.169,3.642,8.9l1.453,0.822c0.066,0.038,0.165,0.109,0.247,0.279    c0.001,0.003,0.003,0.005,0.004,0.008c0.001,0.001,0.001,0.003,0.001,0.004c0.048,0.101,0.083,0.221,0.099,0.345l-0.09,0.632    c-0.059,0.144-0.139,0.26-0.247,0.322l-1.481,0.839C96.336,70.766,94.848,73.402,94.848,76.273z M173.895,161.89    c-0.022,0.162-0.034,0.324-0.034,0.487c0,0.02-0.002,0.038-0.004,0.052l-1.06,0.605c-2.151,1.206-3.488,3.543-3.488,6.101    c0,0.849,0.154,1.696,0.464,2.532c0.006,0.017,0.01,0.033,0.013,0.048l-1.818,0.22l5.008-36.133    c0.266-1.915-1.071-3.682-2.986-3.947c-1.925-0.263-3.682,1.072-3.947,2.986l-5.874,42.379c-0.01,0.073-0.003,0.144-0.008,0.217    l-4.479-0.544l2.979-35.632c0.16-1.926-1.271-3.618-3.196-3.779c-1.93-0.158-3.619,1.271-3.78,3.196l-3.022,36.141    c-0.288,0.113-0.572,0.241-0.846,0.396l-6.509,3.692l-5.707-3.237l-3.093-36.992c-0.161-1.926-1.848-3.353-3.78-3.196    c-1.926,0.161-3.356,1.853-3.196,3.779l2.964,35.443l-6.039,0.734c-0.005-0.073,0.002-0.144-0.008-0.217l-5.874-42.379    c-0.266-1.915-2.029-3.247-3.947-2.986c-1.915,0.265-3.252,2.033-2.986,3.947l5.008,36.133l-1.8-0.217c0-0.035,0-0.065,0-0.065    c1.208-3.258-0.091-6.961-3.004-8.604l-1.086-0.621c-0.002-0.015-0.004-0.032-0.004-0.052c0-0.163-0.012-0.326-0.034-0.488    l-6.571-46.729c0.005,0.002,0.011,0.004,0.017,0.006c0.27,0.117,0.551,0.211,0.838,0.294c0.075,0.022,0.15,0.042,0.225,0.062    c0.298,0.076,0.6,0.14,0.911,0.178l4.636,0.565c0.063,0.007,0.235,0.12,0.333,0.376l0.568,1.54    c0.148,0.394,0.327,0.767,0.529,1.123c0.063,0.112,0.141,0.211,0.21,0.319c0.149,0.235,0.299,0.468,0.469,0.682    c0.094,0.118,0.199,0.222,0.299,0.334c0.165,0.185,0.331,0.367,0.511,0.534c0.117,0.108,0.242,0.202,0.365,0.302    c0.182,0.147,0.364,0.29,0.557,0.419c0.137,0.091,0.278,0.172,0.42,0.253c0.194,0.112,0.39,0.217,0.594,0.31    c0.154,0.07,0.309,0.133,0.467,0.193c0.204,0.077,0.411,0.144,0.622,0.202c0.166,0.046,0.333,0.087,0.503,0.121    c0.214,0.043,0.43,0.071,0.648,0.094c0.173,0.018,0.344,0.036,0.519,0.041c0.073,0.002,0.145,0.017,0.219,0.017    c0.274,0,0.552-0.016,0.829-0.049l11.657-1.425c0.066,0.025,0.048,0.012,0.116,0.033l8.576,4.875    c0.205,0.115,0.419,0.21,0.632,0.304c0.536,0.793,1.383,1.371,2.406,1.513c0.164,0.023,0.327,0.034,0.487,0.034    c1.181,0,2.248-0.607,2.886-1.549c0.059-0.024,0.11-0.049,0.164-0.073c0.045-0.021,0.091-0.039,0.132-0.059    c0.133-0.065,0.251-0.128,0.346-0.18l0.576-0.328l3.179-0.384c0.267-0.032,0.526-0.086,0.782-0.151    c0.065-0.016,0.13-0.034,0.194-0.052c0.234-0.067,0.464-0.144,0.687-0.236c0.018-0.008,0.038-0.013,0.056-0.021    c0.24-0.102,0.47-0.222,0.695-0.352c0.054-0.031,0.107-0.064,0.16-0.097c0.197-0.121,0.388-0.251,0.571-0.392    c0.026-0.02,0.053-0.037,0.078-0.057c0.203-0.161,0.396-0.336,0.58-0.52c0.042-0.042,0.081-0.085,0.122-0.128    c0.155-0.163,0.303-0.333,0.442-0.512c0.027-0.035,0.056-0.067,0.082-0.102c0.156-0.208,0.3-0.426,0.433-0.651    c0.03-0.051,0.058-0.104,0.087-0.156c0.106-0.191,0.204-0.388,0.293-0.59c0.016-0.036,0.037-0.07,0.053-0.106l11.276,1.364    c3.342,0.394,6.527-1.626,7.758-4.912l0.554-1.496c0.11-0.292,0.286-0.4,0.354-0.408l4.621-0.563    c0.318-0.038,0.629-0.103,0.934-0.182c0.098-0.025,0.192-0.058,0.288-0.087c0.209-0.063,0.415-0.134,0.616-0.216    c0.051-0.021,0.105-0.033,0.155-0.054L173.895,161.89z M183.075,96.606c-0.017,0.041-0.032,0.082-0.053,0.117    c-0.012,0.02-0.023,0.041-0.037,0.059c-0.046,0.06-0.097,0.112-0.155,0.146l-1.483,0.839c-2.396,1.372-3.885,4.008-3.885,6.878    c0,0.999,0.176,1.969,0.519,2.873c0.188,0.499-0.013,0.891-0.079,0.999c-0.031,0.051-0.142,0.219-0.271,0.234l-4.608,0.561    c-2.724,0.318-5.049,2.186-6.08,4.902l-0.559,1.51c-0.105,0.279-0.289,0.397-0.374,0.403l-11.681-1.413    c-0.144-0.017-0.287-0.009-0.43-0.017c-1.364-0.082-2.72,0.211-3.959,0.906l-7.02,3.99c-0.042,0.013-0.081,0.036-0.124,0.05    c-0.18,0.061-0.353,0.137-0.526,0.213c-0.121,0.053-0.243,0.101-0.36,0.162c-0.18,0.094-0.351,0.205-0.523,0.316    c-0.062,0.04-0.127,0.071-0.187,0.113l-8.584-4.879c-0.207-0.113-0.41-0.211-0.612-0.298c-0.068-0.03-0.137-0.052-0.206-0.078    c-0.077-0.03-0.155-0.062-0.232-0.088c-0.006-0.002-0.011-0.006-0.017-0.008c-0.008-0.003-0.017-0.005-0.026-0.008    c-0.024-0.008-0.049-0.02-0.073-0.028c-0.023-0.008-0.047-0.012-0.069-0.02c-0.011-0.004-0.023-0.009-0.034-0.013    c-0.009-0.003-0.019-0.003-0.028-0.006c-0.083-0.028-0.167-0.049-0.251-0.073c-0.113-0.033-0.223-0.071-0.338-0.098    c-0.154-0.036-0.312-0.058-0.469-0.084c-0.111-0.018-0.22-0.043-0.333-0.056c-0.157-0.018-0.317-0.02-0.476-0.028    c-0.115-0.005-0.229-0.018-0.344-0.018c-0.273,0.001-0.548,0.017-0.823,0.049l-11.676,1.411c-0.049-0.002-0.266-0.104-0.372-0.386    l-0.574-1.555c-1.022-2.689-3.353-4.556-6.04-4.868l-4.643-0.567c-0.169-0.02-0.418-0.369-0.418-0.809    c0-0.155,0.024-0.292,0.073-0.424c1.38-3.681-0.075-7.875-3.313-9.713l-0.092-0.055c-0.013-0.008-0.027-0.011-0.039-0.019    c-0.013-0.008-0.023-0.018-0.036-0.025l-1.351-0.767c-0.102-0.058-0.174-0.152-0.232-0.262c-0.012-0.023-0.024-0.048-0.034-0.073    l-0.088-0.618c0.001-0.01,0.001-0.019,0.003-0.03c0.015-0.104,0.046-0.21,0.089-0.308c0.01-0.021,0.022-0.041,0.033-0.061    c0.055-0.099,0.122-0.189,0.219-0.244l1.424-0.812c1.031-0.573,1.916-1.412,2.577-2.423c0.012-0.018,0.029-0.032,0.041-0.05    c0.007-0.01,0.011-0.021,0.017-0.031c0.008-0.012,0.017-0.022,0.025-0.034c0.018-0.028,0.026-0.059,0.043-0.087    c0.799-1.273,1.23-2.741,1.23-4.265c0-0.351-0.031-0.7-0.076-1.047c-0.01-0.078-0.02-0.156-0.033-0.234    c-0.011-0.07-0.016-0.14-0.029-0.21l0.375-2.665l4.192-0.511c2.732-0.318,5.063-2.191,6.09-4.908l0.561-1.509    c0.111-0.3,0.285-0.407,0.363-0.399l11.69,1.413c1.51,0.181,3.019-0.121,4.382-0.885l8.561-4.866    c0.022-0.013,0.035-0.013,0.051-0.016c0.035-0.008,0.063-0.003,0.1,0.017l8.586,4.876c0,0,0.001,0,0.001,0.001l0.001,0    c1.009,0.564,2.108,0.874,3.234,0.918c0.375,0.015,0.753-0.001,1.131-0.046l11.68-1.413c0.067,0.005,0.267,0.125,0.368,0.396    l0.569,1.529c1.018,2.697,3.344,4.571,6.056,4.889l4.629,0.563c0.168,0.021,0.418,0.369,0.418,0.81    c0,0.157-0.023,0.293-0.072,0.424c-1.381,3.684,0.072,7.875,3.381,9.75l1.462,0.828c0.209,0.119,0.311,0.385,0.342,0.627    L183.075,96.606z" fill="#280101"/><path d="M146.638,87.15c-1.696-0.283-3.49-0.427-5.331-0.427c-3.547,0-6.972,0.54-9.917,1.566    c-5.404,1.908-8.503,5.245-8.503,9.154c0,1.348,0.379,2.637,1.1,3.824c1.202,1.978,3.354,3.673,6.289,4.886    c0.002,0.001,0.004,0.001,0.006,0.002c3.165,1.308,6.977,1.999,11.025,1.999c1.034,0,2.085-0.048,3.127-0.143    c0.007-0.001,0.014,0,0.021-0.001c3.426-0.317,6.43-1.112,8.847-2.271c4.028-1.931,6.426-4.873,6.426-8.296    C159.727,92.482,154.583,88.441,146.638,87.15z M152.595,97.76c-0.149,0.217-0.435,0.494-0.847,0.794    c-0.195,0.142-0.411,0.287-0.666,0.437c-0.067,0.039-0.145,0.078-0.216,0.118c-0.098,0.054-0.191,0.108-0.297,0.162    c-0.076,0.039-0.163,0.077-0.244,0.116c-0.112,0.054-0.22,0.109-0.34,0.163c-0.083,0.037-0.177,0.073-0.264,0.11    c-0.129,0.055-0.255,0.11-0.393,0.163c-0.035,0.014-0.076,0.026-0.112,0.04c-0.434,0.164-0.906,0.322-1.424,0.467    c-0.021,0.006-0.044,0.011-0.065,0.017c-0.544,0.15-1.132,0.286-1.771,0.403c-0.271,0.049-0.556,0.093-0.845,0.134    c-0.064,0.009-0.123,0.021-0.188,0.03c-0.357,0.049-0.727,0.091-1.111,0.127c-3.953,0.361-7.957-0.153-10.864-1.356    c-2.329-0.962-3.063-2.025-3.063-2.24c0-0.265,0.918-1.524,3.819-2.548c2.2-0.767,4.828-1.172,7.601-1.172    c1.456,0,2.862,0.111,4.193,0.333c5.341,0.868,7.227,2.937,7.227,3.387C152.727,97.525,152.683,97.632,152.595,97.76z" fill="#280101"/></g></g></svg>